<?xml version="1.0" encoding="UTF-8" standalone="no"?>
<!-- Created with Inkscape (http://www.inkscape.org/) -->

<svg
   width="56.223999mm"
   height="39.793999mm"
   viewBox="0 0 56.223999 39.793999"
   version="1.1"
   id="svg4249"
   inkscape:version="1.1 (c4e8f9e, 2021-05-24)"
   sodipodi:docname="noResults.svg"
   xmlns:inkscape="http://www.inkscape.org/namespaces/inkscape"
   xmlns:sodipodi="http://sodipodi.sourceforge.net/DTD/sodipodi-0.dtd"
   xmlns="http://www.w3.org/2000/svg"
   xmlns:svg="http://www.w3.org/2000/svg">
  <sodipodi:namedview
     id="namedview4251"
     pagecolor="#ffffff"
     bordercolor="#999999"
     borderopacity="1"
     inkscape:pageshadow="0"
     inkscape:pageopacity="0"
     inkscape:pagecheckerboard="0"
     inkscape:document-units="mm"
     showgrid="false"
     width="60.988mm"
     inkscape:zoom="2.0535452"
     inkscape:cx="149.74104"
     inkscape:cy="93.496845"
     inkscape:window-width="1294"
     inkscape:window-height="652"
     inkscape:window-x="0"
     inkscape:window-y="25"
     inkscape:window-maximized="0"
     inkscape:current-layer="layer1" />
  <defs
     id="defs4246" />
  <g
     inkscape:label="Layer 1"
     inkscape:groupmode="layer"
     id="layer1">
    <g
       id="g1819"
       transform="matrix(0.26458333,0,0,0.26458333,-848.25416,-221.19166)">
      <path
         d="m 3241.49,931.833 c -6.44,6.298 -7.52,16.027 -6.16,24.581 0.05,0.188 0.33,0.141 0.33,-0.047 0,-1.927 -0.05,-3.854 -0.05,-5.781 0.05,-0.094 0.05,-0.188 0.1,-0.235 1.69,-1.222 3.24,-2.585 4.18,-4.465 1.08,-2.115 1.5,-4.512 2.3,-6.721 0.1,-0.188 -0.14,-0.141 -0.28,-0.047 -3.9,2.867 -5.17,5.969 -6.3,10.152 0.05,-2.162 0.24,-4.324 0.66,-6.439 0.85,-3.948 2.54,-7.849 5.36,-10.763 0.14,-0.188 -0.05,-0.329 -0.14,-0.235 z"
         fill="#a6a6a6"
         id="path2924" />
      <path
         d="m 3242.71,932.585 c 1.13,0.047 1.79,1.786 2.68,2.303 0.47,0.282 0.89,0.235 1.22,-0.188 0.85,-1.175 -0.33,-2.679 -1.41,-3.478 0.8,0.329 1.46,0.893 2.31,1.034 0.51,0.094 0.89,-0.094 1.03,-0.611 0.38,-1.645 -1.65,-2.35 -3.06,-2.397 0.66,-0.47 2.64,-1.739 1.6,-2.397 -1.03,-0.611 -3.33,1.222 -4.09,1.786 -1.08,0.893 -2.39,2.209 -2.44,3.619 -0.14,1.645 1.32,0.658 2.16,0.329 z"
         fill="#dbdbdb"
         id="path2926" />
      <path
         d="m 3242.38,932.82 c 1.41,-0.658 4.14,0.282 4.37,-0.235 0.47,-1.081 -1.69,-1.833 -2.86,-1.974 1.08,-0.282 3.15,-0.752 3.1,-1.786 -0.1,-1.269 -3.15,-0.188 -4.75,1.034 -1.97,1.504 -1.97,2.961 -1.64,3.243 0.42,0.376 1.55,-0.141 1.78,-0.282 z"
         fill="#ebebeb"
         id="path2928" />
      <path
         d="m 3226.82,931.222 c 6.68,6.063 8.14,15.745 7.1,24.299 -0.05,0.188 -0.33,0.141 -0.33,-0.047 -0.09,-1.927 -0.09,-3.854 -0.19,-5.781 -0.04,-0.094 -0.09,-0.188 -0.09,-0.235 -1.74,-1.175 -3.34,-2.491 -4.32,-4.324 -1.18,-2.068 -1.65,-4.418 -2.59,-6.627 -0.09,-0.188 0.14,-0.141 0.28,-0.047 4,2.726 5.41,5.781 6.68,9.87 -0.14,-2.162 -0.38,-4.277 -0.94,-6.439 -0.99,-3.901 -2.82,-7.755 -5.74,-10.528 -0.09,-0.094 0.05,-0.282 0.14,-0.141 z"
         fill="#a6a6a6"
         id="path2930" />
      <path
         d="m 3225.65,931.974 c -1.08,0.094 -1.74,1.88 -2.58,2.444 -0.43,0.282 -0.9,0.282 -1.23,-0.141 -0.89,-1.175 0.24,-2.679 1.27,-3.525 -0.75,0.376 -1.41,0.94 -2.25,1.128 -0.52,0.094 -0.94,-0.047 -1.08,-0.564 -0.43,-1.598 1.55,-2.397 2.96,-2.491 -0.71,-0.423 -2.68,-1.645 -1.7,-2.303 1.04,-0.658 3.39,1.081 4.14,1.645 1.13,0.846 2.49,2.115 2.59,3.525 0.23,1.551 -1.23,0.611 -2.12,0.282 z"
         fill="#dbdbdb"
         id="path2932" />
      <path
         d="m 3225.98,932.256 c -1.46,-0.611 -4.14,0.423 -4.37,-0.094 -0.52,-1.081 1.64,-1.88 2.82,-2.068 -1.08,-0.235 -3.2,-0.658 -3.15,-1.692 0.05,-1.269 3.15,-0.282 4.79,0.846 2.02,1.457 2.07,2.914 1.74,3.196 -0.42,0.423 -1.6,-0.094 -1.83,-0.188 z"
         fill="#ebebeb"
         id="path2934" />
      <path
         d="m 3233.64,947.155 c 0.47,3.196 1.08,6.486 2.07,9.541 0.09,0.282 0.52,0.188 0.47,-0.094 -0.42,-2.961 -1.22,-5.828 -1.69,-8.789 -0.43,-2.961 -0.71,-6.016 -0.52,-9.024 0.28,-4.982 1.64,-10.246 4.89,-14.147 0.09,-0.094 -0.1,-0.235 -0.14,-0.141 -6.49,7.567 -5.46,16.826 -5.46,17.672 -0.94,-3.149 -1.88,-6.721 -5.35,-9.917 -0.14,-0.141 -0.29,-0.094 -0.24,0.141 0.66,5.922 2.26,8.93 5.64,12.032 0.1,0.94 0.19,1.833 0.33,2.726 z"
         fill="#a6a6a6"
         id="path2936" />
      <path
         d="m 3238.95,925.582 c 1.18,-0.517 2.77,0.987 3.95,1.081 0.61,0.047 1.08,-0.188 1.17,-0.799 0.29,-1.645 -1.69,-2.585 -3.24,-2.914 0.99,-0.047 1.93,0.188 2.92,-0.047 0.56,-0.141 0.89,-0.564 0.75,-1.175 -0.43,-1.88 -2.92,-1.598 -4.37,-0.94 0.47,-0.846 1.83,-3.149 0.47,-3.29 -1.41,-0.141 -2.87,2.914 -3.34,3.901 -0.71,1.457 -1.36,3.525 -0.71,4.982 0.71,1.739 1.7,0 2.4,-0.799 z"
         fill="#dbdbdb"
         id="path2938" />
      <path
         d="m 3238.76,926.005 c 1.13,-1.363 4.42,-1.786 4.42,-2.444 -0.05,-1.363 -2.68,-1.034 -3.99,-0.611 0.98,-0.846 2.86,-2.35 2.3,-3.431 -0.71,-1.269 -3.38,1.41 -4.42,3.431 -1.27,2.585 -0.52,4.089 -0.05,4.23 0.66,0.188 1.56,-0.94 1.74,-1.175 z"
         fill="#ebebeb"
         id="path2940" />
      <path
         d="m 3229.41,948.941 -2.87,21.855 h 17.39 c -0.37,-1.927 -3.62,-21.902 -3.62,-21.902 z"
         fill="#dbdbdb"
         id="path2942" />
      <path
         d="m 3399.11,885.052 h 12.46 v -5.264 h -12.46 z"
         fill="#ebebeb"
         id="path2944" />
      <path
         d="m 3406.04,878.416 h 12.46 v -5.264 h -12.46 z"
         fill="#ebebeb"
         id="path2946" />
      <path
         d="m 3392.18,878.416 h 12.46 v -5.264 h -12.46 z"
         fill="#ebebeb"
         id="path2948" />
      <path
         d="m 3212.98,952.848 h 12.45 v -5.264 h -12.45 z"
         fill="#ebebeb"
         id="path2950" />
      <path
         d="m 3206,946.212 h 12.46 v -5.264 H 3206 Z"
         fill="#ebebeb"
         id="path2952" />
      <path
         d="m 3406.04,952.884 h 12.46 v -5.264 h -12.46 z"
         fill="#ebebeb"
         id="path2954" />
      <path
         d="m 3260.05,836 h -12.45 v 5.264 h 12.45 z"
         fill="#ebebeb"
         id="path2956" />
      <path
         d="m 3253.15,842.627 h -12.46 v 5.264 h 12.46 z"
         fill="#ebebeb"
         id="path2958" />
      <path
         d="m 3221.98,970.749 22.61,-0.094 22.56,-0.047 45.12,-0.094 45.12,0.094 22.56,0.047 22.61,0.094 -22.61,0.141 -22.56,0.047 -45.12,0.047 -45.12,-0.047 -22.56,-0.047 z"
         fill="#271019"
         id="path2960" />
      <path
         d="m 3326.51,909.978 c -0.04,0.235 0.1,0.47 0.33,0.517 0.52,0.094 1.08,0.141 1.79,0.235 1.97,-4.324 3.99,-7.708 3.43,-6.392 -0.85,1.927 -1.55,4.747 -1.69,6.627 0.8,0.094 2.58,0.329 3.47,0.423 2.07,-7.708 4.38,-13.348 4.09,-11.562 -1.08,7.144 -0.89,9.494 -0.65,12.032 8.41,1.034 19.5,2.256 27.49,2.914 1.32,-4.23 2.54,-8.836 2.63,-8.507 0.9,2.538 0.85,6.063 0.66,8.789 2.54,0.188 4.61,0.329 5.88,0.329 0,0 0.94,-3.572 1.12,-4.747 0.52,-3.008 0.47,-6.157 -0.09,-9.165 -0.56,-3.102 -1.83,-5.875 -2.96,-8.695 0,-0.047 0,-0.047 -0.05,-0.047 0,0 0,0 0,-0.047 -0.8,-1.974 -1.31,-3.807 -1.64,-5.781 v -0.047 c -0.19,-1.363 -0.29,-2.82 -0.29,-4.371 0.1,-5.358 -2.3,-10.152 -6.86,-11.891 -7.75,-7.943 -18.47,-4.277 -21.48,2.397 v 0.047 c -1.17,3.008 -2.35,6.956 -3.38,9.964 0,0 0,0 0,0.047 -0.52,1.457 -0.94,2.679 -1.36,3.478 -2.78,5.452 -8.13,8.225 -10.44,23.453 z"
         fill="#271019"
         id="path2962" />
      <path
         d="m 3365.1,872.237 c 2.91,1.927 4.56,4.559 4.7,8.507 0.09,2.303 0,4.512 0.66,6.721 0.66,2.256 1.83,4.183 3.01,6.063 1.92,3.008 3.19,6.016 3.14,9.823 0,3.901 -0.56,8.46 -2.11,11.985 h -0.05 c 1.32,-3.572 1.79,-8.648 1.55,-12.549 -0.28,-4.277 -2.3,-7.097 -4.27,-10.434 -1.6,-2.679 -2.49,-5.593 -2.59,-8.836 -0.05,-1.927 0.14,-3.948 -0.42,-5.781 -0.66,-2.209 -2.26,-3.713 -3.86,-5.076 -0.23,-0.235 0,-0.564 0.24,-0.423 z"
         fill="#271019"
         id="path2964" />
      <path
         d="m 3331.26,892.165 c 2.44,-2.867 4.93,-5.264 6.53,-8.93 1.46,-3.337 2.45,-6.909 3.95,-10.199 0.05,-0.047 0.09,-0.047 0.09,0.047 -2.35,5.922 -3.24,11.985 -7.37,16.826 -2.26,2.632 -4.47,5.029 -6.07,8.272 -1.69,3.384 -2.58,6.956 -3.05,10.81 0,0.141 -0.19,0.094 -0.19,0 0,-6.298 2.26,-12.314 6.11,-16.826 z"
         fill="#271019"
         id="path2966" />
      <path
         d="m 3307.57,965.109 c 0,0 22.66,6.157 26.42,5.452 3.76,-0.658 16.4,-17.719 19.22,-23.876 2.82,-6.204 7.47,-36.942 6.58,-40.326 -0.89,-3.384 -5.59,-3.431 -9.54,5.311 -3.95,8.742 -13.3,27.918 -15,29.469 -1.64,1.551 -29.51,22.325 -27.68,23.97 z"
         fill="#dd6a57"
         id="path2968" />
      <path
         d="m 3332.06,968.54 c -3.48,-1.833 -7.71,-6.251 -10.58,-6.674 -2.58,-0.423 -3.62,1.739 -3.62,1.739 0,0 -1.31,-2.961 -3.99,-2.914 -1.36,0 -2.59,2.209 -2.59,2.209 0,0 -1.17,-2.303 -3.57,-2.162 -1.88,0.141 -2.82,2.303 -2.82,2.303 0,0 -2.16,-1.692 -4.04,-0.94 -3.85,1.504 -4.46,17.86 1.46,20.633 2.77,1.269 2.68,-2.726 2.68,-2.726 0,0 1.45,5.734 4.84,5.969 3.38,0.235 2.96,-4.982 2.96,-4.982 0,0 1.46,5.546 4.98,5.405 3.67,-0.141 2.4,-5.264 2.4,-5.264 0,0 2.3,3.713 4.98,3.008 4.42,-1.175 -0.33,-10.011 0.66,-13.583 h 5.54 z"
         fill="#dd6a57"
         id="path2970" />
      <path
         d="m 3327.03,965.062 c 3.43,1.457 7.38,-3.995 10.9,-2.726 4.61,1.645 0.33,7.332 -6.62,8.225 h -5.55 z"
         fill="#dd6a57"
         id="path2972" />
      <path
         d="m 3304.66,963.37 c 0,-0.047 -0.05,-0.094 -0.1,0 -1.5,5.311 -1.55,11.656 0.33,16.873 0.05,0.188 0.38,0.141 0.33,-0.047 -0.89,-5.828 -1.27,-10.998 -0.56,-16.826 z"
         fill="#271019"
         id="path2974" />
      <path
         d="m 3311.19,962.759 c 0,-0.047 -0.09,-0.094 -0.09,0 -1.55,5.499 -1.41,12.596 1.5,18.377 0.09,0.188 0.38,0.282 0.28,0.047 -1.64,-3.995 -2.35,-13.16 -1.69,-18.424 z"
         fill="#271019"
         id="path2976" />
      <path
         d="m 3320.5,981.465 c -2.59,-5.64 -3.06,-11.562 -2.73,-17.672 0,-0.094 -0.09,-0.094 -0.14,0 -0.99,2.961 -0.8,6.909 -0.42,9.917 0.37,2.914 1.31,5.499 3.05,7.849 0.1,0.094 0.28,0.047 0.24,-0.094 z"
         fill="#271019"
         id="path2978" />
      <path
         d="m 3338.22,961.913 c -2.26,-0.752 -4.56,1.034 -6.49,2.068 -0.61,0.329 -1.22,0.705 -1.93,0.893 -1.5,0.47 -2.63,0.188 -3.29,-0.235 -1.03,-0.658 -4.32,-3.948 -6.72,-2.867 -0.75,0.329 -1.6,1.034 -2.02,1.739 -0.7,-1.316 -1.64,-2.726 -3.24,-3.008 -0.75,-0.141 -1.41,0.047 -2.02,0.517 -0.29,0.235 -0.57,0.517 -0.8,0.799 -0.19,0.282 -0.43,0.564 -0.57,0.893 0,0 0,0 0,-0.047 0,-0.047 -0.04,-0.047 -0.04,-0.094 -0.05,-0.047 -0.05,-0.141 -0.1,-0.188 -0.09,-0.141 -0.14,-0.282 -0.23,-0.376 -0.1,-0.094 -0.19,-0.235 -0.28,-0.329 -0.1,-0.094 -0.24,-0.141 -0.33,-0.141 -0.05,0 -0.05,0.047 0,0.094 0.09,0.047 0.18,0.141 0.23,0.235 0.1,0.094 0.14,0.235 0.24,0.329 0.09,0.094 0.14,0.235 0.23,0.329 0.05,0.047 0.1,0.094 0.14,0.188 0,0.047 0.05,0.047 0.05,0.094 0,0.047 0.05,0.047 0.09,0.094 0.05,0.047 0.1,0 0.1,0 0.23,-0.188 0.42,-0.47 0.66,-0.705 0.23,-0.282 0.47,-0.517 0.79,-0.752 0.57,-0.423 1.23,-0.611 1.93,-0.47 1.46,0.282 2.35,1.551 3.1,2.679 0,0.047 0.05,0.047 0.05,0.047 0.8,-0.705 1.55,-1.457 2.63,-1.645 1.18,-0.188 2.31,0.376 3.25,0.987 0.47,0.282 0.94,0.611 1.41,0.94 0.37,0.329 0.79,0.658 1.22,0.94 1.83,1.128 3.8,0.282 4.32,0.047 0.99,-0.423 1.93,-0.94 2.87,-1.504 0.94,-0.564 1.93,-1.128 3.05,-1.222 0.99,-0.094 2.07,0.188 2.73,1.034 0.33,0.423 0.8,1.269 -0.14,3.149 0,0 0,0.047 0.05,0.047 0.47,-0.564 1.97,-3.619 -0.94,-4.559 z"
         fill="#271019"
         id="path2980" />
      <path
         d="m 3358.05,934.935 -21.43,-3.431 c 0,0 10.24,-20.257 16.35,-26.132 6.07,-5.781 9.03,0.141 8.13,9.118 -0.98,9.917 -3.05,20.445 -3.05,20.445 z"
         fill="#37474f"
         id="path2982" />
      <path
         d="m 3357.34,930.94 c -0.61,-0.141 -1.22,-0.235 -1.83,-0.376 -0.56,-0.141 -1.17,-0.235 -1.78,-0.329 -1.23,-0.188 -2.4,-0.376 -3.62,-0.517 -2.4,-0.329 -4.8,-0.705 -7.19,-0.94 -1.37,-0.141 -2.73,-0.376 -4.09,-0.47 -0.05,0 -0.05,0.047 0,0.094 2.35,0.564 4.79,0.987 7.19,1.363 2.39,0.376 4.79,0.752 7.19,1.034 0.66,0.094 1.36,0.141 2.02,0.188 0.7,0.047 1.41,0.094 2.07,0.094 0.09,-0.047 0.09,-0.141 0.04,-0.141 z"
         fill="#271019"
         id="path2984" />
      <path
         d="m 3346.11,970.749 h 56.73 c 0,0 -23.55,-58.515 -35.53,-67.022 -3.62,-2.585 -9.31,-2.867 -13.21,2.303 -3.15,4.23 -11.94,21.009 -12.36,27.072 -0.38,6.063 4.32,12.032 4.32,12.032 z"
         fill="#455a64"
         id="path2986" />
      <path
         d="m 3364.86,931.128 c 0.15,-0.047 0.29,-0.047 0.43,-0.094 0.14,-0.047 0.33,-0.047 0.47,0.047 0.33,0.094 0.56,0.423 0.56,0.799 0,0.235 0.1,0.423 0.28,0.564 0.1,0.047 0.19,0.094 0.33,0.141 0.14,0.047 0.28,0.047 0.43,0.094 -0.15,0.047 -0.29,0.047 -0.43,0.094 -0.14,0.047 -0.33,0 -0.47,-0.047 -0.33,-0.141 -0.51,-0.47 -0.51,-0.799 0,-0.235 -0.15,-0.423 -0.33,-0.564 -0.1,-0.047 -0.19,-0.094 -0.38,-0.094 -0.09,-0.094 -0.23,-0.094 -0.38,-0.141 z"
         fill="#ffffff"
         id="path2988" />
      <path
         d="m 3343.2,931.128 c 0.14,-0.047 0.28,-0.047 0.42,-0.094 0.14,-0.047 0.33,-0.047 0.47,0.047 0.33,0.094 0.56,0.423 0.56,0.799 0,0.235 0.1,0.423 0.29,0.564 0.09,0.047 0.18,0.094 0.33,0.141 0.14,0.047 0.28,0.047 0.42,0.094 -0.14,0.047 -0.28,0.047 -0.42,0.094 -0.15,0.047 -0.33,0 -0.47,-0.047 -0.33,-0.141 -0.52,-0.47 -0.52,-0.799 0,-0.235 -0.14,-0.423 -0.33,-0.564 -0.09,-0.047 -0.19,-0.094 -0.38,-0.094 -0.09,-0.094 -0.23,-0.094 -0.37,-0.141 z"
         fill="#ffffff"
         id="path2990" />
      <path
         d="m 3372.76,959.281 c 0.14,-0.047 0.28,-0.047 0.42,-0.094 0.14,-0.047 0.33,-0.047 0.47,0.047 0.33,0.094 0.57,0.423 0.57,0.799 0,0.235 0.09,0.423 0.28,0.564 0.09,0.047 0.19,0.094 0.33,0.141 0.14,0.047 0.28,0.047 0.42,0.094 -0.14,0.047 -0.28,0.047 -0.42,0.094 -0.14,0.047 -0.33,0 -0.47,-0.047 -0.33,-0.141 -0.52,-0.47 -0.52,-0.799 0,-0.235 -0.14,-0.423 -0.33,-0.564 -0.09,-0.047 -0.19,-0.094 -0.37,-0.094 -0.1,-0.094 -0.24,-0.094 -0.38,-0.141 z"
         fill="#ffffff"
         id="path2992" />
      <path
         d="m 3382.58,932.632 c 0.14,-0.047 0.29,-0.047 0.43,-0.094 0.14,-0.047 0.33,-0.047 0.47,0.047 0.33,0.094 0.56,0.423 0.56,0.799 0,0.235 0.09,0.423 0.28,0.564 0.1,0.047 0.19,0.094 0.33,0.141 0.14,0.047 0.28,0.047 0.42,0.094 -0.14,0.047 -0.28,0.047 -0.42,0.094 -0.14,0.047 -0.33,0 -0.47,-0.047 -0.33,-0.141 -0.52,-0.47 -0.52,-0.799 0,-0.235 -0.14,-0.423 -0.32,-0.564 -0.1,-0.047 -0.19,-0.094 -0.38,-0.094 -0.09,-0.094 -0.24,-0.094 -0.38,-0.141 z"
         fill="#ffffff"
         id="path2994" />
      <path
         d="m 3357.49,918.297 c 0.14,-0.047 0.28,-0.047 0.42,-0.094 0.14,-0.047 0.33,-0.047 0.47,0.047 0.33,0.094 0.56,0.423 0.56,0.799 0,0.235 0.1,0.423 0.28,0.564 0.1,0.047 0.19,0.094 0.33,0.141 0.14,0.047 0.29,0.047 0.43,0.094 -0.14,0.047 -0.29,0.047 -0.43,0.094 -0.14,0.047 -0.33,0 -0.47,-0.047 -0.33,-0.141 -0.51,-0.47 -0.51,-0.799 0,-0.235 -0.14,-0.423 -0.33,-0.564 -0.1,-0.047 -0.19,-0.094 -0.38,-0.094 -0.09,-0.047 -0.23,-0.094 -0.37,-0.141 z"
         fill="#ffffff"
         id="path2996" />
      <path
         d="m 3372.95,917.968 c 0.14,-0.047 0.28,-0.047 0.42,-0.094 0.14,-0.047 0.33,-0.047 0.47,0.047 0.33,0.094 0.57,0.423 0.57,0.799 0,0.235 0.09,0.423 0.28,0.564 0.09,0.047 0.19,0.094 0.33,0.141 0.14,0.047 0.28,0.047 0.42,0.094 -0.14,0.047 -0.28,0.047 -0.42,0.094 -0.14,0.047 -0.33,0 -0.47,-0.047 -0.33,-0.141 -0.52,-0.47 -0.52,-0.799 0,-0.235 -0.14,-0.423 -0.33,-0.564 -0.09,-0.047 -0.19,-0.094 -0.38,-0.094 -0.09,-0.047 -0.23,-0.094 -0.37,-0.141 z"
         fill="#ffffff"
         id="path2998" />
      <path
         d="m 3362.94,903.163 c 0.14,-0.047 0.28,-0.047 0.42,-0.094 0.14,-0.047 0.33,-0.047 0.47,0.047 0.33,0.094 0.56,0.423 0.56,0.799 0,0.235 0.1,0.423 0.29,0.564 0.09,0.047 0.18,0.094 0.33,0.141 0.14,0.047 0.28,0.047 0.42,0.094 -0.14,0.047 -0.28,0.047 -0.42,0.094 -0.15,0.047 -0.33,0 -0.47,-0.047 -0.33,-0.141 -0.52,-0.47 -0.52,-0.799 0,-0.235 -0.14,-0.423 -0.33,-0.564 -0.09,-0.047 -0.19,-0.094 -0.38,-0.094 -0.09,-0.047 -0.23,-0.094 -0.37,-0.141 z"
         fill="#ffffff"
         id="path3000" />
      <path
         d="m 3353.73,942.925 c 0.14,-0.047 0.28,-0.047 0.42,-0.094 0.14,-0.047 0.33,-0.047 0.47,0.047 0.33,0.094 0.56,0.423 0.56,0.799 0,0.235 0.1,0.423 0.28,0.564 0.1,0.047 0.19,0.094 0.33,0.141 0.14,0.047 0.29,0.047 0.43,0.094 -0.14,0.047 -0.29,0.047 -0.43,0.094 -0.14,0.047 -0.33,0 -0.47,-0.047 -0.33,-0.141 -0.51,-0.47 -0.51,-0.799 0,-0.235 -0.14,-0.423 -0.33,-0.564 -0.1,-0.047 -0.19,-0.094 -0.38,-0.094 -0.09,-0.094 -0.23,-0.141 -0.37,-0.141 z"
         fill="#ffffff"
         id="path3002" />
      <path
         d="m 3370.55,968.728 c 0.14,-0.047 0.28,-0.047 0.42,-0.094 0.15,-0.047 0.33,-0.047 0.47,0.047 0.33,0.094 0.57,0.423 0.57,0.799 0,0.235 0.09,0.423 0.28,0.564 0.09,0.047 0.19,0.094 0.33,0.141 0.14,0.047 0.28,0.047 0.42,0.094 -0.14,0.047 -0.28,0.047 -0.42,0.094 -0.14,0.047 -0.33,0 -0.47,-0.047 -0.33,-0.141 -0.52,-0.47 -0.52,-0.799 0,-0.235 -0.14,-0.423 -0.33,-0.564 -0.09,-0.047 -0.18,-0.094 -0.37,-0.094 -0.1,-0.094 -0.24,-0.094 -0.38,-0.141 z"
         fill="#ffffff"
         id="path3004" />
      <path
         d="m 3362.23,954.863 c 0.14,-0.047 0.28,-0.047 0.43,-0.094 0.14,-0.047 0.32,-0.047 0.47,0.047 0.32,0.094 0.56,0.423 0.56,0.799 0,0.235 0.09,0.423 0.28,0.564 0.1,0.047 0.19,0.094 0.33,0.141 0.14,0.047 0.28,0.047 0.42,0.094 -0.14,0.047 -0.28,0.047 -0.42,0.094 -0.14,0.047 -0.33,0 -0.47,-0.047 -0.33,-0.141 -0.52,-0.47 -0.52,-0.799 0,-0.235 -0.14,-0.423 -0.33,-0.564 -0.09,-0.047 -0.18,-0.094 -0.37,-0.094 -0.05,-0.094 -0.24,-0.094 -0.38,-0.141 z"
         fill="#ffffff"
         id="path3006" />
      <path
         d="m 3346.91,957.354 c 0.14,-0.047 0.28,-0.047 0.42,-0.094 0.14,-0.047 0.33,-0.047 0.47,0.047 0.33,0.094 0.57,0.423 0.57,0.799 0,0.235 0.09,0.423 0.28,0.564 0.09,0.047 0.19,0.094 0.33,0.141 0.14,0.047 0.28,0.047 0.42,0.094 -0.14,0.047 -0.28,0.047 -0.42,0.094 -0.14,0.047 -0.33,0 -0.47,-0.047 -0.33,-0.141 -0.52,-0.47 -0.52,-0.799 0,-0.235 -0.14,-0.423 -0.33,-0.564 -0.09,-0.047 -0.19,-0.094 -0.37,-0.094 -0.1,-0.047 -0.24,-0.094 -0.38,-0.141 z"
         fill="#ffffff"
         id="path3008" />
      <path
         d="m 3369.33,943.254 c 0.14,-0.047 0.28,-0.047 0.42,-0.094 0.14,-0.047 0.33,-0.047 0.47,0.047 0.33,0.094 0.57,0.423 0.57,0.799 0,0.235 0.09,0.423 0.28,0.564 0.09,0.047 0.19,0.094 0.33,0.141 0.14,0.047 0.28,0.047 0.42,0.094 -0.14,0.047 -0.28,0.047 -0.42,0.094 -0.14,0.047 -0.33,0 -0.47,-0.047 -0.33,-0.141 -0.52,-0.47 -0.52,-0.799 0,-0.235 -0.14,-0.423 -0.33,-0.564 -0.09,-0.047 -0.19,-0.094 -0.37,-0.094 -0.1,-0.094 -0.24,-0.094 -0.38,-0.141 z"
         fill="#ffffff"
         id="path3010" />
      <path
         d="m 3388.93,962.242 c 0.14,-0.047 0.28,-0.047 0.42,-0.094 0.14,-0.047 0.33,-0.047 0.47,0.047 0.33,0.094 0.57,0.423 0.57,0.799 0,0.235 0.09,0.423 0.28,0.564 0.09,0.047 0.19,0.094 0.33,0.141 0.14,0.047 0.28,0.047 0.42,0.094 -0.14,0.047 -0.28,0.047 -0.42,0.094 -0.14,0.047 -0.33,0 -0.47,-0.047 -0.33,-0.141 -0.52,-0.47 -0.52,-0.799 0,-0.235 -0.14,-0.423 -0.33,-0.564 -0.09,-0.047 -0.19,-0.094 -0.38,-0.094 -0.09,-0.094 -0.23,-0.094 -0.37,-0.141 z"
         fill="#ffffff"
         id="path3012" />
      <path
         d="m 3381.13,950.633 c 0.14,-0.047 0.28,-0.047 0.42,-0.094 0.14,-0.047 0.33,-0.047 0.47,0.047 0.33,0.094 0.56,0.423 0.56,0.799 0,0.235 0.1,0.423 0.29,0.564 0.09,0.047 0.18,0.094 0.32,0.141 0.15,0.047 0.29,0.047 0.43,0.094 -0.14,0.047 -0.28,0.047 -0.43,0.094 -0.14,0.047 -0.32,0 -0.47,-0.047 -0.32,-0.141 -0.51,-0.47 -0.51,-0.799 0,-0.235 -0.14,-0.423 -0.33,-0.564 -0.1,-0.047 -0.19,-0.094 -0.38,-0.094 -0.09,-0.094 -0.23,-0.094 -0.37,-0.141 z"
         fill="#ffffff"
         id="path3014" />
      <path
         d="m 3397.67,967.553 c 0.14,-0.047 0.28,-0.047 0.42,-0.094 0.14,-0.047 0.33,-0.047 0.47,0.047 0.33,0.094 0.57,0.423 0.57,0.799 0,0.235 0.09,0.423 0.28,0.564 0.09,0.047 0.19,0.094 0.33,0.141 0.14,0.047 0.28,0.047 0.42,0.094 -0.14,0.047 -0.28,0.047 -0.42,0.094 -0.14,0.047 -0.33,0 -0.47,-0.047 -0.33,-0.141 -0.52,-0.47 -0.52,-0.799 0,-0.235 -0.14,-0.423 -0.33,-0.564 -0.09,-0.047 -0.19,-0.094 -0.37,-0.094 -0.1,-0.094 -0.24,-0.094 -0.38,-0.141 z"
         fill="#ffffff"
         id="path3016" />
      <path
         d="m 3358.8,926.334 c -0.09,0.141 -0.14,0.235 -0.23,0.376 -0.1,0.094 -0.19,0.235 -0.38,0.329 -0.33,0.141 -0.7,0.094 -0.94,-0.188 -0.14,-0.188 -0.38,-0.235 -0.61,-0.188 -0.14,0.047 -0.24,0.094 -0.33,0.188 -0.14,0.094 -0.23,0.188 -0.38,0.235 0.1,-0.141 0.15,-0.235 0.24,-0.376 0.09,-0.094 0.23,-0.235 0.38,-0.282 0.32,-0.141 0.7,-0.047 0.94,0.188 0.14,0.141 0.37,0.235 0.61,0.141 0.14,-0.047 0.23,-0.094 0.33,-0.188 0.14,-0.094 0.28,-0.188 0.37,-0.235 z"
         fill="#ffffff"
         id="path3018" />
      <path
         d="m 3353.11,916.793 c -0.09,0.141 -0.14,0.235 -0.23,0.376 -0.09,0.094 -0.19,0.235 -0.38,0.329 -0.33,0.141 -0.7,0.094 -0.94,-0.188 -0.14,-0.188 -0.37,-0.235 -0.61,-0.188 -0.14,0.047 -0.23,0.094 -0.33,0.188 -0.14,0.094 -0.23,0.188 -0.37,0.235 0.09,-0.141 0.14,-0.235 0.23,-0.376 0.1,-0.094 0.24,-0.235 0.38,-0.282 0.33,-0.141 0.7,-0.047 0.94,0.188 0.14,0.141 0.37,0.235 0.61,0.141 0.14,-0.047 0.23,-0.094 0.33,-0.188 0.14,-0.047 0.28,-0.141 0.37,-0.235 z"
         fill="#ffffff"
         id="path3020" />
      <path
         d="m 3381.83,942.878 c -0.09,0.141 -0.14,0.235 -0.23,0.376 -0.1,0.094 -0.19,0.235 -0.38,0.329 -0.33,0.141 -0.7,0.094 -0.94,-0.188 -0.14,-0.188 -0.38,-0.235 -0.61,-0.188 -0.14,0.047 -0.24,0.094 -0.33,0.188 -0.14,0.094 -0.23,0.188 -0.38,0.235 0.1,-0.141 0.15,-0.235 0.24,-0.376 0.09,-0.094 0.23,-0.235 0.38,-0.282 0.32,-0.141 0.7,-0.047 0.94,0.188 0.14,0.141 0.37,0.235 0.61,0.141 0.14,-0.047 0.23,-0.094 0.33,-0.188 0.14,-0.047 0.28,-0.141 0.37,-0.235 z"
         fill="#ffffff"
         id="path3022" />
      <path
         d="m 3367.5,912.046 c -0.1,0.141 -0.14,0.235 -0.24,0.376 -0.09,0.094 -0.19,0.235 -0.37,0.329 -0.33,0.141 -0.71,0.094 -0.94,-0.188 -0.15,-0.188 -0.38,-0.235 -0.62,-0.188 -0.14,0.047 -0.23,0.094 -0.32,0.188 -0.15,0.094 -0.24,0.188 -0.38,0.235 0.09,-0.141 0.14,-0.235 0.23,-0.376 0.1,-0.094 0.24,-0.235 0.38,-0.282 0.33,-0.141 0.71,-0.047 0.94,0.188 0.14,0.141 0.38,0.235 0.61,0.141 0.14,-0.047 0.24,-0.094 0.33,-0.188 0.09,-0.094 0.24,-0.188 0.38,-0.235 z"
         fill="#ffffff"
         id="path3024" />
      <path
         d="m 3357.53,904.996 c -0.09,0.141 -0.14,0.235 -0.23,0.376 -0.1,0.094 -0.19,0.235 -0.38,0.329 -0.33,0.141 -0.7,0.094 -0.94,-0.188 -0.14,-0.188 -0.37,-0.235 -0.61,-0.188 -0.14,0.047 -0.23,0.094 -0.33,0.188 -0.14,0.094 -0.23,0.188 -0.37,0.235 0.09,-0.141 0.14,-0.235 0.23,-0.376 0.09,-0.094 0.24,-0.235 0.38,-0.282 0.33,-0.141 0.7,-0.047 0.94,0.188 0.14,0.141 0.37,0.235 0.61,0.141 0.14,-0.047 0.23,-0.094 0.33,-0.188 0.14,-0.047 0.23,-0.141 0.37,-0.235 z"
         fill="#ffffff"
         id="path3026" />
      <path
         d="m 3366.93,920.976 c 0.05,0.141 0.05,0.282 0.1,0.423 0.04,0.141 0.04,0.329 -0.05,0.47 -0.09,0.329 -0.42,0.564 -0.8,0.564 -0.23,0 -0.42,0.094 -0.56,0.282 -0.05,0.094 -0.1,0.188 -0.14,0.329 -0.05,0.141 -0.05,0.282 -0.1,0.423 -0.05,-0.141 -0.05,-0.282 -0.09,-0.423 -0.05,-0.141 0,-0.329 0.04,-0.47 0.15,-0.329 0.47,-0.517 0.8,-0.517 0.24,0 0.43,-0.141 0.57,-0.329 0.04,-0.094 0.09,-0.188 0.09,-0.376 0.1,-0.094 0.1,-0.235 0.14,-0.376 z"
         fill="#ffffff"
         id="path3028" />
      <path
         d="m 3363.55,946.027 c 0.05,0.141 0.05,0.282 0.09,0.423 0.05,0.141 0.05,0.329 -0.04,0.47 -0.1,0.329 -0.43,0.564 -0.8,0.564 -0.24,0 -0.43,0.094 -0.57,0.282 -0.04,0.094 -0.09,0.188 -0.14,0.329 -0.05,0.141 -0.05,0.282 -0.09,0.423 -0.05,-0.141 -0.05,-0.282 -0.1,-0.423 -0.04,-0.141 0,-0.329 0.05,-0.47 0.14,-0.329 0.47,-0.517 0.8,-0.517 0.23,0 0.42,-0.141 0.56,-0.329 0.05,-0.094 0.1,-0.188 0.1,-0.376 0.04,-0.094 0.09,-0.235 0.14,-0.376 z"
         fill="#ffffff"
         id="path3030" />
      <path
         d="m 3396.4,957.636 c 0.05,0.141 0.05,0.282 0.1,0.423 0.04,0.141 0.04,0.329 -0.05,0.47 -0.1,0.329 -0.42,0.564 -0.8,0.564 -0.24,0 -0.42,0.094 -0.56,0.282 -0.05,0.094 -0.1,0.188 -0.15,0.329 -0.04,0.141 -0.04,0.282 -0.09,0.423 -0.05,-0.141 -0.05,-0.282 -0.09,-0.423 -0.05,-0.141 0,-0.329 0.04,-0.47 0.14,-0.329 0.47,-0.517 0.8,-0.517 0.24,0 0.43,-0.141 0.57,-0.329 0.04,-0.094 0.09,-0.188 0.09,-0.376 0.09,-0.094 0.09,-0.235 0.14,-0.376 z"
         fill="#ffffff"
         id="path3032" />
      <path
         d="m 3381.17,924.454 c 0.05,0.141 0.05,0.282 0.1,0.423 0.05,0.141 0.05,0.329 -0.05,0.47 -0.09,0.329 -0.42,0.564 -0.8,0.564 -0.23,0 -0.42,0.094 -0.56,0.282 -0.05,0.094 -0.1,0.188 -0.14,0.329 -0.05,0.141 -0.05,0.282 -0.1,0.423 -0.04,-0.141 -0.04,-0.282 -0.09,-0.423 -0.05,-0.141 0,-0.329 0.05,-0.47 0.14,-0.329 0.47,-0.517 0.8,-0.517 0.23,0 0.42,-0.141 0.56,-0.329 0.05,-0.094 0.09,-0.188 0.09,-0.376 0.1,-0.094 0.1,-0.235 0.14,-0.376 z"
         fill="#ffffff"
         id="path3034" />
      <path
         d="m 3381.17,964.639 c 0.05,0.141 0.05,0.282 0.1,0.423 0.05,0.141 0.05,0.329 -0.05,0.47 -0.09,0.329 -0.42,0.564 -0.8,0.564 -0.23,0 -0.42,0.094 -0.56,0.282 -0.05,0.094 -0.1,0.188 -0.14,0.329 -0.05,0.141 -0.05,0.282 -0.1,0.423 -0.04,-0.141 -0.04,-0.282 -0.09,-0.423 -0.05,-0.141 0,-0.329 0.05,-0.47 0.14,-0.329 0.47,-0.517 0.8,-0.517 0.23,0 0.42,-0.141 0.56,-0.329 0.05,-0.094 0.09,-0.188 0.09,-0.376 0.1,-0.094 0.1,-0.235 0.14,-0.376 z"
         fill="#ffffff"
         id="path3036" />
      <path
         d="m 3388.93,941.656 c 0.05,0.141 0.05,0.282 0.09,0.423 0.05,0.141 0.05,0.329 -0.04,0.47 -0.1,0.329 -0.43,0.564 -0.8,0.564 -0.24,0 -0.43,0.094 -0.57,0.282 -0.04,0.094 -0.09,0.188 -0.14,0.329 -0.04,0.141 -0.04,0.282 -0.09,0.423 -0.05,-0.141 -0.05,-0.282 -0.1,-0.423 -0.04,-0.141 0,-0.329 0.05,-0.47 0.14,-0.329 0.47,-0.517 0.8,-0.517 0.24,0 0.42,-0.141 0.56,-0.329 0.05,-0.094 0.1,-0.188 0.1,-0.376 0.05,-0.094 0.09,-0.235 0.14,-0.376 z"
         fill="#ffffff"
         id="path3038" />
      <path
         d="m 3349.73,946.92 c 0.05,0.141 0.05,0.282 0.09,0.423 0.05,0.141 0.05,0.329 -0.04,0.47 -0.1,0.329 -0.43,0.564 -0.8,0.564 -0.24,0 -0.42,0.094 -0.57,0.282 -0.04,0.094 -0.09,0.188 -0.14,0.329 -0.04,0.141 -0.04,0.282 -0.09,0.423 -0.05,-0.141 -0.05,-0.282 -0.09,-0.423 -0.05,-0.141 0,-0.329 0.04,-0.47 0.14,-0.329 0.47,-0.517 0.8,-0.517 0.24,0 0.42,-0.141 0.57,-0.329 0.04,-0.094 0.09,-0.188 0.09,-0.376 0.09,-0.094 0.09,-0.235 0.14,-0.376 z"
         fill="#ffffff"
         id="path3040" />
      <path
         d="m 3350.48,924.454 c 0.05,0.141 0.05,0.282 0.1,0.423 0.04,0.141 0.04,0.329 -0.05,0.47 -0.09,0.329 -0.42,0.564 -0.8,0.564 -0.23,0 -0.42,0.094 -0.56,0.282 -0.05,0.094 -0.1,0.188 -0.14,0.329 -0.05,0.141 -0.05,0.282 -0.1,0.423 -0.05,-0.141 -0.05,-0.282 -0.09,-0.423 -0.05,-0.141 0,-0.329 0.04,-0.47 0.15,-0.329 0.47,-0.517 0.8,-0.517 0.24,0 0.43,-0.141 0.57,-0.329 0.04,-0.094 0.09,-0.188 0.09,-0.376 0.1,-0.094 0.1,-0.235 0.14,-0.376 z"
         fill="#ffffff"
         id="path3042" />
      <path
         d="m 3358.66,909.837 c 0.05,0.141 0.05,0.282 0.09,0.423 0.05,0.141 0.05,0.329 -0.04,0.47 -0.1,0.329 -0.43,0.564 -0.8,0.564 -0.24,0 -0.42,0.094 -0.57,0.282 -0.04,0.094 -0.09,0.188 -0.14,0.329 -0.04,0.141 -0.04,0.282 -0.09,0.423 -0.05,-0.141 -0.05,-0.282 -0.09,-0.423 -0.05,-0.141 0,-0.329 0.04,-0.47 0.14,-0.329 0.47,-0.517 0.8,-0.517 0.24,0 0.42,-0.141 0.57,-0.329 0.04,-0.094 0.09,-0.188 0.09,-0.376 0.09,-0.094 0.14,-0.235 0.14,-0.376 z"
         fill="#ffffff"
         id="path3044" />
      <path
         d="m 3356.5,932.444 c 0.05,0.141 0.05,0.282 0.09,0.423 0.05,0.141 0.05,0.329 -0.04,0.47 -0.1,0.329 -0.43,0.564 -0.8,0.564 -0.24,0 -0.43,0.094 -0.57,0.282 -0.04,0.094 -0.09,0.188 -0.14,0.329 -0.05,0.141 -0.05,0.282 -0.09,0.423 -0.05,-0.141 -0.05,-0.282 -0.1,-0.423 -0.04,-0.141 0,-0.329 0.05,-0.47 0.14,-0.329 0.47,-0.517 0.8,-0.517 0.23,0 0.42,-0.141 0.56,-0.329 0.05,-0.094 0.1,-0.188 0.1,-0.376 0.04,-0.094 0.09,-0.235 0.14,-0.376 z"
         fill="#ffffff"
         id="path3046" />
      <path
         d="m 3376.24,935.452 c 0.05,0.141 0.05,0.282 0.09,0.423 0.05,0.141 0.05,0.329 -0.04,0.47 -0.1,0.329 -0.43,0.564 -0.8,0.564 -0.24,0 -0.43,0.094 -0.57,0.282 -0.04,0.094 -0.09,0.188 -0.14,0.329 -0.05,0.141 -0.05,0.282 -0.09,0.423 -0.05,-0.141 -0.05,-0.282 -0.1,-0.423 -0.04,-0.141 0,-0.329 0.05,-0.47 0.14,-0.329 0.47,-0.517 0.8,-0.517 0.23,0 0.42,-0.141 0.56,-0.329 0.05,-0.094 0.1,-0.188 0.1,-0.376 0.09,-0.094 0.09,-0.235 0.14,-0.376 z"
         fill="#ffffff"
         id="path3048" />
      <path
         d="m 3358,960.832 c 0.05,0.141 0.05,0.282 0.1,0.423 0.04,0.141 0.04,0.329 -0.05,0.47 -0.09,0.329 -0.42,0.564 -0.8,0.564 -0.23,0 -0.42,0.094 -0.56,0.282 -0.05,0.094 -0.1,0.188 -0.14,0.329 -0.05,0.141 -0.05,0.282 -0.1,0.423 -0.05,-0.141 -0.05,-0.282 -0.09,-0.423 -0.05,-0.141 0,-0.329 0.04,-0.47 0.15,-0.329 0.47,-0.517 0.8,-0.517 0.24,0 0.43,-0.141 0.57,-0.329 0.04,-0.094 0.09,-0.188 0.09,-0.376 0.05,-0.094 0.1,-0.235 0.14,-0.376 z"
         fill="#ffffff"
         id="path3050" />
      <path
         d="m 3372.85,928.308 c 0.1,-0.141 0.15,-0.235 0.24,-0.376 0.09,-0.094 0.19,-0.235 0.38,-0.329 0.32,-0.141 0.7,-0.094 0.94,0.188 0.14,0.188 0.37,0.235 0.61,0.188 0.14,-0.047 0.23,-0.094 0.33,-0.188 0.14,-0.094 0.23,-0.188 0.37,-0.235 -0.09,0.141 -0.14,0.235 -0.23,0.376 -0.1,0.094 -0.24,0.235 -0.38,0.282 -0.33,0.141 -0.7,0.047 -0.94,-0.188 -0.14,-0.141 -0.38,-0.235 -0.61,-0.141 -0.14,0.047 -0.24,0.094 -0.33,0.188 -0.14,0.047 -0.23,0.141 -0.38,0.235 z"
         fill="#ffffff"
         id="path3052" />
      <path
         d="m 3361.34,938.742 c 0.09,-0.141 0.14,-0.235 0.23,-0.376 0.1,-0.094 0.19,-0.235 0.38,-0.329 0.33,-0.141 0.71,-0.094 0.94,0.188 0.14,0.188 0.38,0.235 0.61,0.188 0.14,-0.047 0.24,-0.094 0.33,-0.188 0.14,-0.094 0.24,-0.188 0.38,-0.235 -0.1,0.141 -0.14,0.235 -0.24,0.376 -0.09,0.094 -0.23,0.235 -0.37,0.282 -0.33,0.141 -0.71,0.047 -0.94,-0.188 -0.15,-0.141 -0.38,-0.235 -0.62,-0.141 -0.14,0.047 -0.23,0.094 -0.32,0.188 -0.15,0.047 -0.29,0.141 -0.38,0.235 z"
         fill="#ffffff"
         id="path3054" />
      <path
         d="m 3353.54,954.111 c 0.09,-0.141 0.14,-0.235 0.23,-0.376 0.1,-0.094 0.19,-0.235 0.38,-0.329 0.33,-0.141 0.7,-0.094 0.94,0.188 0.14,0.188 0.37,0.235 0.61,0.188 0.14,-0.047 0.23,-0.094 0.33,-0.188 0.14,-0.094 0.23,-0.188 0.37,-0.235 -0.09,0.141 -0.14,0.235 -0.23,0.376 -0.09,0.094 -0.24,0.235 -0.38,0.282 -0.33,0.141 -0.7,0.047 -0.94,-0.188 -0.14,-0.141 -0.37,-0.235 -0.61,-0.141 -0.14,0.047 -0.23,0.094 -0.33,0.188 -0.14,0.094 -0.28,0.141 -0.37,0.235 z"
         fill="#ffffff"
         id="path3056" />
      <path
         d="m 3356.88,970.091 c 0.09,-0.141 0.14,-0.235 0.23,-0.376 0.09,-0.094 0.19,-0.235 0.38,-0.329 0.33,-0.141 0.7,-0.094 0.94,0.188 0.14,0.188 0.37,0.235 0.61,0.188 0.14,-0.047 0.23,-0.094 0.33,-0.188 0.14,-0.094 0.23,-0.188 0.37,-0.235 -0.09,0.141 -0.14,0.235 -0.23,0.376 -0.1,0.094 -0.24,0.235 -0.38,0.282 -0.33,0.141 -0.7,0.047 -0.94,-0.188 -0.14,-0.141 -0.37,-0.235 -0.61,-0.141 -0.14,0.047 -0.23,0.094 -0.33,0.188 -0.09,0.094 -0.23,0.141 -0.37,0.235 z"
         fill="#ffffff"
         id="path3058" />
      <path
         d="m 3372.01,952.513 c 0.09,-0.141 0.14,-0.235 0.23,-0.376 0.1,-0.094 0.19,-0.235 0.38,-0.329 0.33,-0.141 0.7,-0.094 0.94,0.188 0.14,0.188 0.38,0.235 0.61,0.188 0.14,-0.047 0.24,-0.094 0.33,-0.188 0.14,-0.094 0.23,-0.188 0.38,-0.235 -0.1,0.141 -0.15,0.235 -0.24,0.376 -0.09,0.094 -0.23,0.235 -0.38,0.282 -0.32,0.141 -0.7,0.047 -0.94,-0.188 -0.14,-0.141 -0.37,-0.235 -0.61,-0.141 -0.14,0.047 -0.23,0.094 -0.33,0.188 -0.14,0.094 -0.23,0.188 -0.37,0.235 z"
         fill="#ffffff"
         id="path3060" />
      <path
         d="m 3382.4,958.905 c 0.09,-0.141 0.14,-0.235 0.23,-0.376 0.09,-0.094 0.19,-0.235 0.38,-0.329 0.33,-0.141 0.7,-0.094 0.94,0.188 0.14,0.188 0.37,0.235 0.61,0.188 0.14,-0.047 0.23,-0.094 0.33,-0.188 0.14,-0.094 0.23,-0.188 0.37,-0.235 -0.09,0.141 -0.14,0.235 -0.23,0.376 -0.1,0.094 -0.24,0.235 -0.38,0.282 -0.33,0.141 -0.7,0.047 -0.94,-0.188 -0.14,-0.141 -0.37,-0.235 -0.61,-0.141 -0.14,0.047 -0.23,0.094 -0.33,0.188 -0.14,0.047 -0.23,0.141 -0.37,0.235 z"
         fill="#ffffff"
         id="path3062" />
      <path
         d="m 3364.91,963.746 c 0.1,-0.141 0.14,-0.235 0.24,-0.376 0.09,-0.094 0.18,-0.235 0.37,-0.329 0.33,-0.141 0.71,-0.094 0.94,0.188 0.14,0.188 0.38,0.235 0.61,0.188 0.14,-0.047 0.24,-0.094 0.33,-0.188 0.14,-0.094 0.24,-0.188 0.38,-0.235 -0.1,0.141 -0.14,0.235 -0.24,0.376 -0.09,0.094 -0.23,0.235 -0.37,0.282 -0.33,0.141 -0.71,0.047 -0.94,-0.188 -0.14,-0.141 -0.38,-0.235 -0.61,-0.141 -0.14,0.047 -0.24,0.094 -0.33,0.188 -0.14,0.047 -0.24,0.141 -0.38,0.235 z"
         fill="#ffffff"
         id="path3064" />
      <path
         d="m 3387.47,970.091 c 0.1,-0.141 0.14,-0.235 0.24,-0.376 0.09,-0.094 0.18,-0.235 0.37,-0.329 0.33,-0.141 0.71,-0.094 0.94,0.188 0.14,0.188 0.38,0.235 0.61,0.188 0.14,-0.047 0.24,-0.094 0.33,-0.188 0.14,-0.094 0.24,-0.188 0.38,-0.235 -0.1,0.141 -0.14,0.235 -0.24,0.376 -0.09,0.094 -0.23,0.235 -0.37,0.282 -0.33,0.141 -0.71,0.047 -0.94,-0.188 -0.14,-0.141 -0.38,-0.235 -0.61,-0.141 -0.14,0.047 -0.24,0.094 -0.33,0.188 -0.14,0.094 -0.24,0.141 -0.38,0.235 z"
         fill="#ffffff"
         id="path3066" />
      <path
         d="m 3390.01,952.889 c 0.09,-0.141 0.14,-0.235 0.23,-0.376 0.1,-0.094 0.19,-0.235 0.38,-0.329 0.33,-0.141 0.71,-0.094 0.94,0.188 0.14,0.188 0.38,0.235 0.61,0.188 0.14,-0.047 0.24,-0.094 0.33,-0.188 0.14,-0.094 0.24,-0.188 0.38,-0.235 -0.1,0.141 -0.14,0.235 -0.24,0.376 -0.09,0.094 -0.23,0.235 -0.37,0.282 -0.33,0.141 -0.71,0.047 -0.94,-0.188 -0.15,-0.141 -0.38,-0.235 -0.62,-0.141 -0.14,0.047 -0.23,0.094 -0.32,0.188 -0.15,0.094 -0.24,0.188 -0.38,0.235 z"
         fill="#ffffff"
         id="path3068" />
      <path
         d="m 3348.84,965.908 c 0.09,-0.141 0.14,-0.235 0.23,-0.376 0.1,-0.094 0.19,-0.235 0.38,-0.329 0.33,-0.141 0.7,-0.094 0.94,0.188 0.14,0.188 0.37,0.235 0.61,0.188 0.14,-0.047 0.23,-0.094 0.33,-0.188 0.14,-0.094 0.23,-0.188 0.37,-0.235 -0.09,0.141 -0.14,0.235 -0.23,0.376 -0.09,0.094 -0.24,0.235 -0.38,0.282 -0.33,0.141 -0.7,0.047 -0.94,-0.188 -0.14,-0.141 -0.37,-0.235 -0.61,-0.141 -0.14,0.047 -0.23,0.094 -0.33,0.188 -0.14,0.094 -0.28,0.188 -0.37,0.235 z"
         fill="#ffffff"
         id="path3070" />
      <path
         d="m 3347.52,939.118 c 0.1,-0.141 0.14,-0.235 0.24,-0.376 0.09,-0.094 0.18,-0.235 0.37,-0.329 0.33,-0.141 0.71,-0.094 0.94,0.188 0.14,0.188 0.38,0.235 0.61,0.188 0.14,-0.047 0.24,-0.094 0.33,-0.188 0.14,-0.094 0.24,-0.188 0.38,-0.235 -0.1,0.141 -0.14,0.235 -0.24,0.376 -0.09,0.094 -0.23,0.235 -0.37,0.282 -0.33,0.141 -0.71,0.047 -0.94,-0.188 -0.14,-0.141 -0.38,-0.235 -0.61,-0.141 -0.14,0.047 -0.24,0.094 -0.33,0.188 -0.14,0.047 -0.24,0.141 -0.38,0.235 z"
         fill="#ffffff"
         id="path3072" />
      <path
         d="m 3362.84,903.305 c -0.18,0.893 -4.13,6.674 -8.13,6.627 -1.31,0 -1.5,-7.097 -1.5,-7.097 l -0.14,-0.517 -1.88,-7.285 8.41,-5.828 1.22,-0.752 c 0,0 0.38,2.021 0.85,4.559 0,0.094 0.05,0.235 0.05,0.376 0.04,0.141 0.04,0.282 0.09,0.423 0.09,0.376 0.14,0.752 0.19,1.128 0.04,0.282 0.09,0.564 0.14,0.893 0.05,0.329 0.09,0.611 0.14,0.94 0.47,2.961 0.66,6.157 0.56,6.533 z"
         fill="#dd6a57"
         id="path3074" />
      <path
         d="m 3361.72,892.964 c -1.93,5.922 -6.49,8.46 -8.6,9.306 l -1.88,-7.285 8.41,-5.828 1.22,-0.752 c 0,0 0.38,2.021 0.85,4.559 z"
         fill="#271019"
         id="path3076" />
      <path
         d="m 3340.89,884.222 c -0.32,13.207 7.52,14.899 10.34,14.946 2.59,0.047 11.38,-0.047 13.07,-13.113 1.69,-13.066 -4.32,-17.39 -10.2,-17.86 -5.87,-0.47 -12.88,2.82 -13.21,16.027 z"
         fill="#dd6a57"
         id="path3078" />
      <path
         d="m 3342.87,880.227 c 0.33,-0.047 0.56,-0.141 0.89,-0.235 0.33,-0.094 0.61,-0.141 0.85,-0.423 0.14,-0.141 0.09,-0.423 -0.05,-0.564 -0.33,-0.329 -0.75,-0.329 -1.17,-0.235 -0.43,0.094 -0.76,0.282 -1.04,0.658 -0.23,0.376 0.14,0.846 0.52,0.799 z"
         fill="#271019"
         id="path3080" />
      <path
         d="m 3351.7,882.154 c -0.32,0 -0.61,-0.094 -0.89,-0.141 -0.33,-0.047 -0.61,-0.094 -0.89,-0.329 -0.14,-0.141 -0.14,-0.423 -0.05,-0.564 0.28,-0.329 0.71,-0.376 1.13,-0.329 0.47,0.047 0.8,0.235 1.08,0.564 0.33,0.282 0.05,0.799 -0.38,0.799 z"
         fill="#271019"
         id="path3082" />
      <path
         d="m 3344.84,884.505 c 0,-0.047 -0.04,0.047 -0.04,0.094 0.09,0.893 0.04,1.927 -0.76,2.303 -0.04,0 0,0.047 0,0.047 0.94,-0.235 1.04,-1.598 0.8,-2.444 z"
         fill="#271019"
         id="path3084" />
      <path
         d="m 3343.95,883.611 c -1.46,0 -1.36,2.867 -0.05,2.914 1.37,0 1.27,-2.914 0.05,-2.914 z"
         fill="#271019"
         id="path3086" />
      <path
         d="m 3343.39,883.846 c -0.24,0.141 -0.43,0.423 -0.71,0.47 -0.33,0.047 -0.56,-0.282 -0.75,-0.564 0,-0.047 -0.05,0 -0.05,0.047 0,0.564 0.19,1.128 0.75,1.222 0.47,0.094 0.85,-0.423 0.94,-0.94 -0.04,-0.188 -0.09,-0.329 -0.18,-0.235 z"
         fill="#271019"
         id="path3088" />
      <path
         d="m 3350.72,892.165 c -0.24,0.188 -0.47,0.47 -0.8,0.517 -0.33,0 -0.66,-0.141 -0.94,-0.282 -0.05,0 -0.05,0 -0.05,0.047 0.24,0.376 0.71,0.564 1.13,0.517 0.42,-0.047 0.61,-0.423 0.75,-0.752 0,-0.047 -0.05,-0.047 -0.09,-0.047 z"
         fill="#271019"
         id="path3090" />
      <path
         d="m 3346.25,888.593 c 0,0 -0.09,1.363 -0.09,1.974 0,0.047 1.78,-0.188 3.66,0.329 0.29,0.094 0.29,-0.141 -0.04,-0.329 -0.66,-0.329 -1.46,-0.658 -3.1,-0.564 -0.05,-0.188 0.18,-2.068 0.09,-2.068 -0.33,0 -0.99,0.282 -1.41,0.423 0.14,-2.82 0.75,-5.546 0.85,-8.366 0,-0.094 -0.15,-0.141 -0.19,-0.047 -0.85,2.867 -1.08,6.063 -1.27,8.977 -0.05,0.329 1.22,-0.235 1.5,-0.329 z"
         fill="#271019"
         id="path3092" />
      <path
         d="m 3352.5,884.551 c -0.23,-0.094 -0.51,-0.141 -0.8,-0.188 -0.28,0 -0.56,0 -0.84,0.047 -0.28,0.094 -0.57,0.188 -0.85,0.376 -0.23,0.188 -0.47,0.423 -0.61,0.705 l -0.28,0.517 0.56,-0.047 c 0.38,-0.047 0.8,-0.047 1.23,0 0.42,0.047 0.79,0.141 1.17,0.423 -0.19,-0.423 -0.61,-0.705 -1.08,-0.846 -0.42,-0.141 -0.89,-0.188 -1.36,-0.141 l 0.28,0.47 c 0.23,-0.423 0.61,-0.705 1.08,-0.893 0.47,-0.235 0.99,-0.376 1.5,-0.423 z"
         fill="#271019"
         id="path3094" />
      <path
         d="m 3350.86,886.901 c -0.42,-0.141 -0.85,-0.235 -1.22,-0.47 -0.1,-0.047 -0.43,-0.329 -0.43,-0.376 0.05,-0.188 0.14,-0.423 0.24,-0.611 -0.14,0.188 -0.28,0.376 -0.33,0.611 0.05,0.235 0.19,0.423 0.42,0.564 0.43,0.188 0.94,0.282 1.32,0.282 z"
         fill="#271019"
         id="path3096" />
      <path
         d="m 3347.76,890.473 c 0,0 0.8,1.175 1.74,1.316 1.08,0.188 1.22,-0.799 0,-1.363 -0.62,-0.329 -1.74,0.047 -1.74,0.047 z"
         fill="#271019"
         id="path3098" />
      <path
         d="m 3349.5,891.742 c -0.43,-0.047 -0.8,-0.282 -1.08,-0.564 0.23,-0.329 0.75,-0.705 1.88,-0.094 0.18,0.423 -0.1,0.799 -0.8,0.658 z"
         fill="#ff99ba"
         id="path3100" />
      <path
         d="m 3364.25,886.337 c -2.16,0.282 -2.91,-4.277 -2.91,-4.277 0,0 -4.42,0.235 -6.2,-6.063 0,0 0.23,2.961 2.2,5.17 0,0 -7.84,-0.47 -11.46,-6.815 0,0 1.45,3.243 2.77,4.371 0,0 -3.34,-0.752 -5.03,-3.337 0,0 -1.17,3.854 -2.21,4.935 0,0 -0.33,-13.677 12.41,-12.831 0,0 7.94,0.141 11.09,6.298 3.15,6.11 -0.66,12.549 -0.66,12.549 z"
         fill="#271019"
         id="path3102" />
      <path
         d="m 3362.19,886.995 c 0,0 2.63,-4.277 4.55,-3.384 1.93,0.893 0.15,7.003 -2.02,7.943 -2.16,0.94 -3.05,-1.034 -3.05,-1.034 z"
         fill="#dd6a57"
         id="path3104" />
      <path
         d="m 3366.18,885.35 c 0.05,0 0.05,0.047 0,0.047 -1.5,0.705 -2.21,2.209 -2.68,3.713 0.42,-0.611 1.04,-0.94 1.83,-0.47 0.05,0.047 0,0.094 -0.04,0.094 -0.66,-0.094 -1.08,0.047 -1.46,0.564 -0.28,0.376 -0.47,0.846 -0.66,1.269 -0.04,0.141 -0.33,0.094 -0.28,-0.094 v -0.047 c -0.14,-1.927 1.22,-4.747 3.29,-5.076 z"
         fill="#271019"
         id="path3106" />
      <path
         d="m 3363.5,890.896 c 0,0.329 0.33,0.611 0.66,0.564 0.33,0 0.61,-0.329 0.56,-0.658 0,-0.329 -0.33,-0.611 -0.65,-0.564 -0.33,0 -0.62,0.282 -0.57,0.658 z"
         fill="#ffffff"
         id="path3108" />
      <path
         d="m 3364.96,889.862 c 0,0.235 0.19,0.376 0.42,0.376 0.24,0 0.38,-0.188 0.38,-0.423 0,-0.235 -0.19,-0.376 -0.43,-0.376 -0.18,0 -0.37,0.188 -0.37,0.423 z"
         fill="#ffffff"
         id="path3110" />
      <path
         d="m 3322.18,915.542 -6.82,1.584 4.91,21.152 6.82,-1.584 z"
         fill="#ebebeb"
         id="path3112" />
      <path
         d="m 3305.55,859.406 c -15.93,3.713 -25.85,19.599 -22.14,35.579 3.72,15.933 19.6,25.85 35.54,22.137 15.93,-3.713 25.85,-19.599 22.13,-35.532 -3.66,-15.933 -19.6,-25.85 -35.53,-22.184 z m 12.03,51.653 c -12.59,2.914 -25.14,-4.888 -28.06,-17.484 -2.91,-12.596 4.89,-25.145 17.49,-28.059 12.59,-2.914 25.14,4.888 28.06,17.484 2.91,12.549 -4.94,25.145 -17.49,28.059 z"
         fill="#a6a6a6"
         id="path3114" />
      <path
         d="m 3331.73,961.631 -4.56,1.081 c -1.6,0.376 -3.15,-0.611 -3.52,-2.209 l -5.88,-25.192 c -0.38,-1.598 0.61,-3.149 2.21,-3.525 l 4.56,-1.081 c 1.6,-0.376 3.15,0.611 3.52,2.209 l 5.88,25.192 c 0.37,1.551 -0.61,3.149 -2.21,3.525 z"
         fill="#271019"
         id="path3116" />
      <g
         opacity="0.3"
         id="g3132">
        <path
           opacity="0.3"
           d="m 3335.07,883 c 2.91,12.596 -4.89,25.145 -17.49,28.059 -12.59,2.914 -25.14,-4.888 -28.06,-17.484 -2.91,-12.596 4.89,-25.145 17.49,-28.059 12.55,-2.961 25.1,4.888 28.06,17.484 z"
           fill="#ffffff"
           id="path3118" />
        <g
           opacity="0.3"
           id="g3130">
          <path
             opacity="0.3"
             d="m 3335.63,889.58 c -0.56,10.105 -7.71,19.082 -18.05,21.479 -2.16,0.517 -4.27,0.705 -6.39,0.564 z"
             fill="#ebebeb"
             id="path3120" />
          <path
             opacity="0.3"
             d="m 3324.87,868.572 -33.47,30.221 c -0.8,-1.645 -1.45,-3.384 -1.88,-5.217 -0.51,-2.115 -0.65,-4.23 -0.56,-6.345 l 24.72,-22.325 c 4,0.235 7.85,1.551 11.19,3.666 z"
             fill="#ebebeb"
             id="path3122" />
          <path
             opacity="0.3"
             d="m 3334.41,880.744 -31.91,28.764 c -1.41,-0.658 -2.73,-1.41 -3.95,-2.303 l 33.98,-30.644 c 0.75,1.316 1.36,2.679 1.88,4.183 z"
             fill="#ebebeb"
             id="path3124" />
          <path
             opacity="0.3"
             d="M 3327.45,870.498 3293,901.565 c -0.14,-0.235 -0.33,-0.47 -0.47,-0.705 l 34.22,-30.879 c 0.23,0.141 0.47,0.329 0.7,0.517 z"
             fill="#ebebeb"
             id="path3126" />
          <path
             opacity="0.3"
             d="m 3305.83,865.798 -15.27,13.771 c 0.28,-0.658 0.56,-1.269 0.89,-1.927 l 12.41,-11.233 c 0.66,-0.188 1.31,-0.423 1.97,-0.611 z"
             fill="#ebebeb"
             id="path3128" />
        </g>
      </g>
      <path
         d="m 3295.68,892.306 c 0,-0.047 0,-0.047 0,-0.094 -0.09,-0.47 0.05,0.47 0,0.141 -0.05,-0.376 -0.09,-0.705 -0.14,-1.081 -0.09,-1.269 -0.09,-2.538 0,-3.854 0,-0.188 0.05,-0.376 0.05,-0.517 0,-0.047 -0.05,0.423 0,0.047 0,-0.094 0.04,-0.235 0.04,-0.329 0.05,-0.423 0.14,-0.846 0.19,-1.269 0.19,-0.94 0.42,-1.833 0.71,-2.726 0.09,-0.235 0.14,-0.423 0.23,-0.658 0.1,-0.282 -0.14,0.329 0.05,-0.047 0.05,-0.141 0.09,-0.235 0.14,-0.376 0.19,-0.47 0.42,-0.94 0.66,-1.41 0.23,-0.47 0.51,-0.987 0.84,-1.457 0.14,-0.235 0.29,-0.423 0.43,-0.658 0.23,-0.376 -0.1,0.141 0.09,-0.094 0.09,-0.141 0.19,-0.235 0.28,-0.376 0.85,-1.081 1.84,-2.068 2.87,-2.961 0,0 0.23,-0.188 0.05,-0.047 -0.14,0.141 0.09,-0.047 0.09,-0.094 0.14,-0.141 0.33,-0.235 0.47,-0.376 0.33,-0.235 0.61,-0.47 0.94,-0.658 0.71,-0.47 1.41,-0.893 2.12,-1.269 0.84,-0.47 1.03,-1.645 0.56,-2.444 -0.52,-0.846 -1.6,-1.034 -2.44,-0.564 -4.66,2.491 -8.46,6.392 -10.39,11.327 -1.32,3.29 -1.83,6.909 -1.6,10.434 0.05,0.799 0.14,1.598 0.28,2.35 0.19,0.893 1.37,1.457 2.21,1.175 1.04,-0.235 1.46,-1.128 1.27,-2.115 z"
         fill="#ffffff"
         id="path3134" />
      <path
         d="m 3297.23,897.335 c 0.28,0.94 -0.23,1.88 -1.17,2.162 -0.94,0.282 -1.88,-0.235 -2.17,-1.175 -0.28,-0.94 0.24,-1.88 1.18,-2.162 0.94,-0.282 1.93,0.235 2.16,1.175 z"
         fill="#ffffff"
         id="path3136" />
      <path
         d="m 3372.01,912.14 c 4.23,15.275 6.25,30.644 3.9,38.587 -1.5,5.029 -5.08,8.46 -7.38,9.588 -5.36,2.632 -23.17,-1.128 -34.73,-3.431 -2.87,-0.564 3.85,-23.547 6.72,-22.325 4.23,1.786 17.2,4.23 17.53,4.324 0.75,0.282 2.35,-16.356 3.48,-26.085 1.55,-13.536 8.03,-9.494 10.48,-0.658 z"
         fill="#dd6a57"
         id="path3138" />
      <path
         d="m 3311.52,930.188 c -1.27,2.068 0.38,3.948 0.38,3.948 0,0 -1.74,0.799 -2.4,2.538 -0.75,1.974 2.02,4.042 2.02,4.042 0,0 -1.6,1.175 -2.12,3.055 -0.51,1.974 1.98,4.418 1.98,4.418 0,0 -0.89,1.927 -0.14,3.854 1.22,3.337 6.58,4.418 9.96,5.17 3.39,0.752 13.68,-0.376 15.65,-0.376 l 4.89,-21.667 c 0,0 -14.24,-7.567 -18.33,-7.896 -3.52,-0.235 -10.48,0.611 -11.89,2.914 z"
         fill="#dd6a57"
         id="path3140" />
      <path
         d="m 3312.13,933.807 c 3.71,-0.611 7.47,-0.094 11.19,0.188 0.09,0 0.09,0.141 0,0.141 -3.72,-0.329 -7.48,0.047 -11.19,-0.141 -0.09,0 -0.09,-0.188 0,-0.188 z"
         fill="#271019"
         id="path3142" />
      <path
         d="m 3311.66,940.387 c 0.85,-0.094 1.74,0.047 2.59,0.141 0.89,0.141 1.83,0.235 2.72,0.423 1.79,0.282 3.62,0.658 5.41,1.034 0.09,0 0.09,0.141 0,0.141 -1.79,-0.282 -3.62,-0.564 -5.41,-0.799 -0.89,-0.094 -1.83,-0.235 -2.72,-0.329 -0.85,-0.094 -1.74,-0.094 -2.54,-0.376 -0.19,0 -0.19,-0.188 -0.05,-0.235 z"
         fill="#271019"
         id="path3144" />
      <path
         d="m 3311.43,948.189 c 0.75,-0.141 1.59,0.141 2.3,0.282 0.8,0.141 1.64,0.282 2.44,0.47 1.65,0.282 3.29,0.564 4.94,0.799 0.09,0 0.09,0.141 0,0.141 -1.69,-0.235 -3.39,-0.423 -5.03,-0.658 -0.85,-0.141 -1.65,-0.235 -2.49,-0.376 -0.71,-0.094 -1.6,-0.188 -2.21,-0.517 0,-0.094 0,-0.141 0.05,-0.141 z"
         fill="#271019"
         id="path3146" />
      <path
         d="m 3316.17,927.932 c -1.69,0.235 -3.66,0.611 -4.74,2.068 -0.47,0.611 -0.8,1.41 -0.71,2.209 0.09,0.752 0.47,1.41 1.03,1.88 -1.31,0.423 -2.49,1.692 -2.58,3.102 -0.05,0.752 0.19,1.41 0.66,1.974 0.23,0.282 0.51,0.517 0.75,0.799 0.23,0.235 0.56,0.47 0.8,0.705 -0.28,0.235 -0.57,0.47 -0.8,0.752 -0.28,0.282 -0.52,0.564 -0.75,0.893 -0.43,0.658 -0.75,1.41 -0.75,2.209 0,0.799 0.32,1.504 0.79,2.162 0.43,0.611 0.9,1.222 1.56,1.551 0.04,0 0.09,-0.047 0.04,-0.047 -0.51,-0.47 -0.94,-0.987 -1.27,-1.598 -0.37,-0.658 -0.65,-1.363 -0.65,-2.115 0.04,-0.705 0.32,-1.41 0.7,-2.021 0.19,-0.329 0.42,-0.611 0.66,-0.94 0.19,-0.235 0.7,-0.752 0.66,-0.799 0,0 -0.57,-0.611 -0.76,-0.846 -0.18,-0.282 -0.37,-0.517 -0.56,-0.799 -0.38,-0.564 -0.56,-1.175 -0.47,-1.833 0.09,-0.611 0.38,-1.175 0.8,-1.598 0.38,-0.47 0.89,-0.846 1.32,-1.316 0.04,-0.047 0.04,-0.141 0,-0.141 -0.94,-1.457 -0.8,-2.867 0.18,-3.948 0.52,-0.564 1.13,-0.94 1.79,-1.269 0.75,-0.376 1.55,-0.611 2.35,-0.846 0,-0.094 0,-0.188 -0.05,-0.188 z"
         fill="#271019"
         id="path3148" />
      <path
         d="m 3347.33,959.516 c -0.98,-0.329 -2.06,-0.47 -3.1,-0.705 -1.03,-0.235 -2.07,-0.423 -3.1,-0.658 -1.03,-0.188 -2.12,-0.423 -3.15,-0.611 -1.03,-0.188 -2.02,-0.423 -3.05,-0.564 -0.99,-0.141 -1.98,-0.047 -2.97,0.047 -0.98,0.094 -1.97,0.188 -3,0.235 -2.02,0.094 -4.05,0.047 -6.07,-0.141 -2.25,-0.188 -4.51,-0.611 -6.72,-1.222 -0.04,0 -0.04,0.047 0,0.094 3.81,1.269 7.85,1.927 11.85,1.88 0.98,0 2.02,-0.047 3,-0.141 0.99,-0.094 1.98,-0.282 3.01,-0.235 1.08,0 2.12,0.282 3.15,0.47 1.04,0.188 2.07,0.376 3.1,0.564 1.18,0.188 2.35,0.423 3.53,0.611 1.17,0.188 2.35,0.423 3.52,0.517 0.1,0.047 0.1,-0.141 0,-0.141 z"
         fill="#271019"
         id="path3150" />
      <path
         d="m 3361.95,939.823 c -1.5,-0.517 -3.1,-0.846 -4.65,-1.222 -1.55,-0.376 -3.1,-0.752 -4.66,-1.081 -2.96,-0.658 -5.96,-1.222 -8.93,-2.068 -0.75,-0.235 -1.55,-0.47 -2.3,-0.705 -0.37,-0.141 -0.75,-0.282 -1.13,-0.423 -0.37,-0.141 -0.8,-0.282 -1.17,-0.517 -0.05,-0.047 -0.1,0.047 -0.05,0.047 0.28,0.188 0.57,0.423 0.89,0.564 0.33,0.188 0.66,0.376 1.04,0.517 0.61,0.282 1.27,0.564 1.97,0.752 1.37,0.47 2.82,0.799 4.23,1.128 3.1,0.705 6.21,1.41 9.31,2.068 0.89,0.188 1.74,0.376 2.63,0.564 0.89,0.188 1.83,0.376 2.77,0.517 0.1,0.047 0.14,-0.094 0.05,-0.141 z"
         fill="#271019"
         id="path3152" />
      <path
         d="m 3357.06,934.136 21.48,2.914 c 0,0 -3.95,-22.372 -8.08,-29.751 -4.14,-7.285 -8.65,-2.491 -10.39,6.345 -1.97,9.823 -3.01,20.492 -3.01,20.492 z"
         fill="#37474f"
         id="path3154" />
      <path
         d="m 3376.94,933.807 c -0.61,-0.141 -1.22,-0.235 -1.83,-0.376 -0.56,-0.141 -1.17,-0.235 -1.79,-0.329 -1.22,-0.188 -2.39,-0.376 -3.61,-0.517 -2.4,-0.329 -4.8,-0.705 -7.2,-0.94 -1.36,-0.141 -2.72,-0.376 -4.08,-0.47 -0.05,0 -0.05,0.047 0,0.094 2.35,0.564 4.79,0.987 7.19,1.363 2.39,0.376 4.79,0.752 7.19,1.034 0.66,0.094 1.36,0.141 2.02,0.188 0.7,0.047 1.41,0.094 2.07,0.094 0.09,0 0.09,-0.094 0.04,-0.141 z"
         fill="#271019"
         id="path3156" />
      <path
         d="m 3388.69,852.732 c -0.84,7.896 -7.89,13.583 -15.74,12.784 -3.2,-0.329 -6.02,-1.692 -8.23,-3.713 l -7.19,1.034 3.57,-6.204 c -0.89,-2.115 -1.22,-4.465 -0.98,-6.909 0.84,-7.896 7.89,-13.583 15.74,-12.784 7.95,0.846 13.68,7.896 12.83,15.792 z"
         fill="#ffffff"
         id="path3158" />
      <path
         d="m 3388.69,852.732 c -0.28,2.632 -1.27,5.17 -2.91,7.285 -0.38,0.564 -0.85,0.987 -1.32,1.504 -0.51,0.423 -0.98,0.893 -1.5,1.269 -1.03,0.799 -2.21,1.457 -3.48,1.927 -1.22,0.517 -2.54,0.752 -3.85,0.94 -0.66,0.047 -1.32,0.094 -1.98,0.047 -0.65,0 -1.31,-0.094 -1.97,-0.188 -2.63,-0.47 -5.12,-1.692 -7.1,-3.525 l 0.19,0.047 -7.19,1.081 -0.52,0.094 0.28,-0.47 3.58,-6.204 v 0.235 c -1.74,-4.089 -1.37,-8.977 0.89,-12.784 1.13,-1.927 2.68,-3.572 4.51,-4.794 1.83,-1.222 3.95,-2.021 6.11,-2.303 2.16,-0.282 4.42,-0.094 6.49,0.611 2.07,0.705 3.99,1.88 5.54,3.384 3.11,3.008 4.7,7.52 4.23,11.844 z m 0,0 c 0.43,-4.324 -1.17,-8.836 -4.37,-11.797 -1.55,-1.504 -3.48,-2.632 -5.54,-3.243 -2.07,-0.658 -4.28,-0.799 -6.4,-0.47 -2.11,0.329 -4.18,1.128 -5.92,2.35 -1.74,1.222 -3.24,2.82 -4.27,4.7 -1.09,1.833 -1.65,3.948 -1.84,6.063 -0.14,2.115 0.24,4.277 0.99,6.251 l 0.05,0.141 -0.05,0.094 -3.62,6.204 -0.23,-0.376 7.19,-0.987 h 0.09 l 0.09,0.047 c 1.88,1.786 4.33,3.008 6.87,3.525 0.65,0.141 1.27,0.188 1.92,0.235 0.66,0.047 1.32,0 1.98,0 1.31,-0.141 2.63,-0.376 3.85,-0.846 1.22,-0.47 2.4,-1.081 3.48,-1.88 0.56,-0.376 1.03,-0.846 1.5,-1.269 0.43,-0.47 0.94,-0.94 1.32,-1.504 1.64,-2.068 2.63,-4.606 2.91,-7.238 z"
         fill="#271019"
         id="path3160" />
      <path
         d="m 3367.4,857.949 c 0,-0.846 0.61,-1.457 1.41,-1.457 0.85,0 1.41,0.611 1.41,1.457 0,0.846 -0.56,1.457 -1.41,1.457 -0.84,0 -1.41,-0.658 -1.41,-1.457 z m 0.61,-3.431 -0.33,-11.421 h 2.31 l -0.33,11.421 z"
         fill="#994bbd"
         id="path3162" />
      <path
         d="m 3372.9,857.949 c 0,-0.846 0.61,-1.457 1.41,-1.457 0.85,0 1.41,0.611 1.41,1.457 0,0.846 -0.56,1.457 -1.41,1.457 -0.84,0 -1.41,-0.658 -1.41,-1.457 z m 0.57,-3.431 -0.33,-11.421 h 2.3 l -0.33,11.421 z"
         fill="#994bbd"
         id="path3164" />
      <path
         d="m 3378.35,857.949 c 0,-0.846 0.61,-1.457 1.41,-1.457 0.85,0 1.41,0.611 1.41,1.457 0,0.846 -0.56,1.457 -1.41,1.457 -0.84,0 -1.41,-0.658 -1.41,-1.457 z m 0.61,-3.431 -0.32,-11.421 h 2.3 l -0.33,11.421 z"
         fill="#994bbd"
         id="path3166" />
    </g>
  </g>
</svg>
