<?xml version="1.0" encoding="UTF-8" standalone="no"?>
<!-- Created with Inkscape (http://www.inkscape.org/) -->

<svg
   width="39.601002mm"
   height="9.2910004mm"
   viewBox="0 0 39.601002 9.2910003"
   version="1.1"
   id="svg11243"
   inkscape:version="1.1 (c4e8f9e, 2021-05-24)"
   sodipodi:docname="initialLogo.svg"
   xmlns:inkscape="http://www.inkscape.org/namespaces/inkscape"
   xmlns:sodipodi="http://sodipodi.sourceforge.net/DTD/sodipodi-0.dtd"
   xmlns="http://www.w3.org/2000/svg"
   xmlns:svg="http://www.w3.org/2000/svg">
  <sodipodi:namedview
     id="namedview11245"
     pagecolor="#ffffff"
     bordercolor="#999999"
     borderopacity="1"
     inkscape:pageshadow="0"
     inkscape:pageopacity="0"
     inkscape:pagecheckerboard="0"
     inkscape:document-units="mm"
     showgrid="false"
     width="93.551mm"
     inkscape:zoom="0.59181819"
     inkscape:cx="228.1106"
     inkscape:cy="236.55914"
     inkscape:window-width="1294"
     inkscape:window-height="652"
     inkscape:window-x="0"
     inkscape:window-y="25"
     inkscape:window-maximized="0"
     inkscape:current-layer="layer1" />
  <defs
     id="defs11240" />
  <g
     inkscape:label="Layer 1"
     inkscape:groupmode="layer"
     id="layer1">
    <g
       id="g12491"
       transform="matrix(0.26458333,0,0,0.26458333,165.78079,-353.49359)">
      <path
         fill-rule="evenodd"
         clip-rule="evenodd"
         d="m -482.45908,1352.3678 c 0.652,0.142 1.311,0.342 1.975,0.603 0.664,0.26 1.264,0.603 1.801,1.028 0.535,0.425 0.967,0.945 1.292,1.56 0.327,0.615 0.49,1.347 0.49,2.198 0,1.112 -0.222,2.051 -0.664,2.82 -0.443,0.767 -1.02,1.388 -1.731,1.861 -0.71,0.472 -1.508,0.816 -2.394,1.028 -0.886,0.213 -1.772,0.318 -2.657,0.318 -1.422,0 -3.19,-0.296 -4.454,-0.983 -1.382,-0.752 -1.876,-1.184 -2.355,-1.736 -0.221,-0.255 -0.28,-0.607 -0.049,-0.854 l 1.682,-2.357 c 0.221,-0.237 0.596,-0.465 0.864,-0.28 0.596,0.415 1.306,0.929 1.862,1.211 1.14,0.577 2.576,0.814 3.758,0.229 0.454,-0.223 0.672,-0.665 0.647,-1.02 -0.036,-0.542 -0.277,-0.863 -0.836,-1.124 -0.559,-0.259 -1.433,-0.531 -2.622,-0.815 -0.606,-0.141 -1.213,-0.33 -1.818,-0.567 -0.606,-0.237 -1.148,-0.555 -1.625,-0.957 -0.478,-0.402 -0.869,-0.899 -1.172,-1.49 -0.303,-0.59 -0.455,-1.3 -0.455,-2.127 0,-1.063 0.222,-1.968 0.665,-2.712 0.443,-0.746 1.014,-1.353 1.714,-1.827 0.698,-0.472 1.473,-0.82 2.323,-1.045 0.851,-0.225 1.696,-0.337 2.535,-0.337 1.306,0 2.437,0.176 3.667,0.687 1.05,0.436 1.566,0.721 2.332,1.339 0.268,0.218 0.293,0.618 0.055,0.868 l -1.744,2.331 c -0.222,0.285 -0.565,0.267 -0.835,0.114 -0.442,-0.249 -0.73,-0.417 -1.128,-0.622 -0.406,-0.21 -0.841,-0.368 -1.291,-0.452 -0.872,-0.163 -1.654,-0.138 -2.337,0.182 -0.455,0.213 -0.676,0.635 -0.676,1.155 0,0.496 0.25,0.851 0.752,1.064 0.5,0.212 1.311,0.449 2.429,0.709 z m -16.454,13.509 c -0.484,1.209 -0.917,1.907 -1.391,2.597 -1.664,2.44 -4.78,3.03 -7.272,2.5 -1.168,-0.34 -2.103,-0.73 -2.583,-1.29 -0.221,-0.25 -0.279,-0.6 -0.05,-0.85 l 1.47,-2.605 c 0.221,-0.237 0.597,-0.466 0.863,-0.281 0.269,0.187 0.889,0.467 1.353,0.467 0.696,-0.039 1.529,-0.072 2.367,-1.982 0.359,-0.934 0.346,-1.561 -0.183,-2.936 l -6.328,-15.122 c -0.163,-0.387 0.124,-0.816 0.547,-0.816 h 5.049 c 0.254,0 0.48,0.161 0.562,0.4 l 3.742,10.947 h 0.106 l 3.334,-10.928 c 0.075,-0.248 0.305,-0.419 0.566,-0.419 h 4.415 c 0.415,0 0.701,0.414 0.553,0.8 z m -15.595,-3.439 c -0.71,0.472 -1.509,0.816 -2.394,1.028 -0.886,0.213 -1.772,0.318 -2.658,0.318 -1.421,0 -3.189,-0.296 -4.453,-0.983 -1.383,-0.752 -1.876,-1.184 -2.355,-1.736 -0.221,-0.255 -0.281,-0.607 -0.051,-0.854 l 1.684,-2.357 c 0.221,-0.237 0.596,-0.465 0.862,-0.28 0.598,0.415 1.307,0.929 1.863,1.211 1.14,0.577 2.576,0.814 3.758,0.229 0.455,-0.223 0.673,-0.665 0.648,-1.02 -0.036,-0.542 -0.277,-0.863 -0.836,-1.124 -0.56,-0.259 -1.434,-0.531 -2.622,-0.815 -0.606,-0.141 -1.213,-0.33 -1.818,-0.567 -0.606,-0.237 -1.148,-0.555 -1.625,-0.957 -0.479,-0.402 -0.869,-0.899 -1.172,-1.49 -0.303,-0.59 -0.455,-1.3 -0.455,-2.127 0,-1.063 0.222,-1.968 0.665,-2.712 0.442,-0.746 1.014,-1.353 1.714,-1.827 0.698,-0.472 1.472,-0.82 2.323,-1.045 0.851,-0.225 1.696,-0.337 2.535,-0.337 1.305,0 2.436,0.176 3.667,0.687 1.05,0.436 1.566,0.721 2.332,1.339 0.267,0.218 0.293,0.618 0.054,0.868 l -1.743,2.331 c -0.223,0.285 -0.565,0.267 -0.835,0.114 -0.442,-0.249 -0.732,-0.417 -1.128,-0.622 -0.406,-0.21 -0.841,-0.368 -1.291,-0.452 -0.872,-0.163 -1.654,-0.138 -2.337,0.182 -0.455,0.213 -0.676,0.635 -0.676,1.155 0,0.496 0.25,0.851 0.75,1.064 0.502,0.212 1.312,0.449 2.431,0.709 0.652,0.142 1.311,0.342 1.974,0.603 0.665,0.26 1.265,0.603 1.802,1.028 0.535,0.425 0.965,0.945 1.292,1.56 0.327,0.615 0.49,1.347 0.49,2.198 0,1.112 -0.222,2.051 -0.664,2.82 -0.444,0.767 -1.02,1.388 -1.731,1.861 z m -15.642,0.78 h -4.059 c -0.328,0 -0.593,-0.264 -0.593,-0.589 v -1.291 h -0.104 c -0.444,0.733 -1.114,1.301 -2.011,1.702 -0.897,0.402 -1.87,0.604 -2.919,0.604 -0.699,0 -1.422,-0.096 -2.168,-0.284 -0.745,-0.189 -1.427,-0.496 -2.045,-0.922 -0.617,-0.426 -1.124,-0.994 -1.521,-1.702 -0.396,-0.71 -0.594,-1.584 -0.594,-2.624 0,-1.276 0.344,-2.305 1.032,-3.085 0.687,-0.78 1.573,-1.383 2.657,-1.808 1.084,-0.425 2.289,-0.709 3.617,-0.851 1.329,-0.142 2.622,-0.213 3.881,-0.213 v -0.284 c 0,-0.874 -0.303,-1.518 -0.909,-1.933 -0.606,-0.412 -1.351,-0.619 -2.237,-0.619 -0.817,0 -1.603,0.176 -2.36,0.532 -0.57,0.266 -1.362,0.714 -1.807,1.062 -0.243,0.19 -0.591,0.163 -0.8,-0.065 l -1.701,-2.285 c -0.226,-0.246 -0.201,-0.63 0.054,-0.849 0.919,-0.788 1.424,-1.259 2.995,-1.977 1.32,-0.603 2.756,-0.744 4.178,-0.744 1.469,0 2.71,0.183 3.724,0.549 1.014,0.367 1.835,0.934 2.464,1.702 0.63,0.769 1.089,1.738 1.381,2.908 0.291,1.17 0.436,2.558 0.436,4.166 v 8.311 c 0,0.325 -0.264,0.589 -0.591,0.589 z m -4.652,-7.315 c 0,-0.21 -0.171,-0.38 -0.381,-0.38 h -0.353 c -0.629,0 -1.265,0.031 -1.905,0.089 -0.641,0.059 -1.213,0.172 -1.714,0.337 -0.5,0.166 -0.914,0.407 -1.24,0.726 -0.326,0.32 -0.489,0.74 -0.489,1.259 0,0.332 0.074,0.615 0.227,0.852 0.151,0.236 0.343,0.426 0.577,0.566 0.232,0.142 0.5,0.243 0.804,0.303 0.302,0.058 0.594,0.087 0.873,0.087 1.166,0 2.057,-0.324 2.674,-0.975 0.618,-0.649 0.927,-1.53 0.927,-2.641 z m -16.795,5.289 c -0.886,0.816 -1.911,1.449 -3.077,1.899 -1.165,0.448 -2.412,0.672 -3.741,0.672 -1.305,0 -2.546,-0.224 -3.723,-0.672 -1.176,-0.45 -2.201,-1.083 -3.076,-1.899 -0.874,-0.815 -1.567,-1.808 -2.08,-2.978 -0.513,-1.17 -0.769,-2.475 -0.769,-3.918 0,-1.441 0.256,-2.741 0.769,-3.9 0.513,-1.158 1.206,-2.139 2.08,-2.943 0.875,-0.804 1.9,-1.418 3.076,-1.844 1.177,-0.425 2.418,-0.638 3.723,-0.638 1.329,0 2.576,0.213 3.741,0.638 1.166,0.426 2.191,1.04 3.077,1.844 0.884,0.804 1.584,1.785 2.097,2.943 0.512,1.159 0.769,2.459 0.769,3.9 0,1.443 -0.257,2.748 -0.769,3.918 -0.513,1.17 -1.213,2.163 -2.097,2.978 z m -6.801,-11.412 c -2.52,0 -4.562,2.032 -4.562,4.538 0,2.069 1.401,3.794 3.304,4.341 0.391,0.126 0.807,0.211 1.277,0.211 0.57,0 1.069,-0.113 1.523,-0.299 1.758,-0.631 3.022,-2.288 3.022,-4.253 0,-2.506 -2.043,-4.538 -4.564,-4.538 z m -16.333,-6.096 c -1.355,-0.257 -2.464,-1.36 -2.721,-2.709 -0.461,-2.428 1.639,-4.516 4.079,-4.057 1.356,0.255 2.466,1.358 2.724,2.706 0.466,2.429 -1.638,4.522 -4.082,4.06 z m -1.649,1.875 h 4.549 c 0.327,0 0.593,0.265 0.593,0.59 v 16.48 c 0,0.325 -0.266,0.589 -0.593,0.589 h -4.549 c -0.326,0 -0.592,-0.264 -0.592,-0.589 v -16.48 c 0,-0.325 0.266,-0.59 0.592,-0.59 z"
         fill="#ffffff"
         id="path2524-2"
         style="fill:#000000" />
      <path
         fill-rule="evenodd"
         clip-rule="evenodd"
         d="m -584.04808,1348.9298 c 0,5.783 -2.342,11.012 -6.126,14.793 -3.786,3.779 -9.022,6.121 -14.812,6.121 v 0.01 h -10e-4 v -0.01 c -5.791,0 -11.028,-2.342 -14.812,-6.122 -3.785,-3.78 -6.126,-9.009 -6.127,-14.791 0,-1.467 1.181,-2.658 2.65,-2.658 1.469,0 2.66,1.189 2.66,2.656 v 0 c 0,4.301 1.743,8.204 4.578,11.036 2.834,2.83 6.742,4.582 11.051,4.582 v -0.011 h 10e-4 v 0.011 c 4.308,0 8.216,-1.752 11.05,-4.582 2.835,-2.832 4.589,-6.735 4.589,-11.037 h -0.01 v -10e-4 c 0,-1.467 1.19,-2.656 2.66,-2.656 1.468,0 2.66,1.189 2.66,2.656 v 10e-4 z m -11.81,9.116 c -2.331,2.326 -5.557,3.766 -9.128,3.766 v 0.01 h -10e-4 v -0.01 c -3.572,0 -6.798,-1.44 -9.128,-3.766 -2.329,-2.328 -3.772,-5.55 -3.772,-9.115 h -0.01 v 0 h 0.01 c 0,-3.567 1.443,-6.789 3.772,-9.116 2.33,-2.326 5.556,-3.766 9.126,-3.766 v -0.01 h 0.002 10e-4 v 0.01 c 3.57,0 6.798,1.44 9.128,3.767 2.329,2.327 3.771,5.548 3.771,9.114 h 0.01 v 0 0 h -0.01 c 0,3.566 -1.442,6.788 -3.771,9.116 z m -1.529,-9.118 c 0,-2.085 -0.853,-3.981 -2.232,-5.359 -1.381,-1.377 -3.278,-2.23 -5.367,-2.23 v 0.01 h -10e-4 -0.002 v -0.01 c -2.088,0 -3.985,0.853 -5.365,2.23 -1.38,1.378 -2.233,3.274 -2.233,5.36 h 0.009 v 0 h -0.009 c 0,2.085 0.853,3.981 2.233,5.359 1.38,1.377 3.277,2.23 5.367,2.23 v -0.01 h 10e-4 v 0.01 c 2.089,0 3.986,-0.853 5.366,-2.23 1.38,-1.378 2.233,-3.274 2.233,-5.36 h -0.009 v -10e-4 -10e-4 z m -25.885,-3.854 c -1.823,0 -3.301,-1.477 -3.301,-3.298 0,-1.82 1.478,-3.297 3.301,-3.297 1.823,0 3.303,1.477 3.303,3.297 0,1.821 -1.48,3.298 -3.303,3.298 z"
         fill="#ffffff"
         id="path2526-9"
         style="fill:#000000" />
    </g>
  </g>
</svg>
